<svg width="20" height="20" viewBox="0 0 20 20" fill="none" xmlns="http://www.w3.org/2000/svg">
<path d="M12.3806 14.2348C13.9595 14.0475 15.4819 13.6763 16.9259 13.1432C15.7285 11.8142 14.9998 10.0547 14.9998 8.125V7.54099C14.9999 7.52734 14.9999 7.51368 14.9999 7.5C14.9999 4.73858 12.7614 2.5 9.99994 2.5C7.23852 2.5 4.99994 4.73858 4.99994 7.5L4.99977 8.125C4.99977 10.0547 4.271 11.8142 3.07367 13.1432C4.51778 13.6763 6.0403 14.0475 7.61922 14.2348M12.3806 14.2348C11.5999 14.3274 10.8054 14.375 9.99978 14.375C9.19425 14.375 8.39984 14.3274 7.61922 14.2348M12.3806 14.2348C12.4581 14.4759 12.4999 14.7331 12.4999 15C12.4999 16.3807 11.3807 17.5 9.99994 17.5C8.61923 17.5 7.49994 16.3807 7.49994 15C7.49994 14.7331 7.54177 14.476 7.61922 14.2348M2.60364 6.25C2.84304 4.82303 3.48538 3.5327 4.40967 2.5M15.5902 2.5C16.5145 3.5327 17.1568 4.82303 17.3962 6.25" stroke="#111827" stroke-width="1.5" stroke-linecap="round" stroke-linejoin="round"/>
</svg>
