<svg width="18" height="16" viewBox="0 0 18 16" fill="none" xmlns="http://www.w3.org/2000/svg">
<path d="M0.875 12.625C5.431 12.625 9.84467 13.2344 14.039 14.376C14.6448 14.5409 15.25 14.0905 15.25 13.4626V12.625M2.125 0.75V1.375C2.125 1.72018 1.84518 2 1.5 2H0.875M0.875 2V1.6875C0.875 1.16973 1.29473 0.75 1.8125 0.75H15.875M0.875 2V9.5M15.875 0.75V1.375C15.875 1.72018 16.1548 2 16.5 2H17.125M15.875 0.75H16.1875C16.7053 0.75 17.125 1.16973 17.125 1.6875V9.8125C17.125 10.3303 16.7053 10.75 16.1875 10.75H15.875M17.125 9.5H16.5C16.1548 9.5 15.875 9.77982 15.875 10.125V10.75M15.875 10.75H2.125M2.125 10.75H1.8125C1.29473 10.75 0.875 10.3303 0.875 9.8125V9.5M2.125 10.75V10.125C2.125 9.77982 1.84518 9.5 1.5 9.5H0.875M11.5 5.75C11.5 7.13071 10.3807 8.25 9 8.25C7.61929 8.25 6.5 7.13071 6.5 5.75C6.5 4.36929 7.61929 3.25 9 3.25C10.3807 3.25 11.5 4.36929 11.5 5.75ZM14 5.75H14.0062V5.75625H14V5.75ZM4 5.75H4.00625V5.75625H4V5.75Z" stroke="#F9FAFB" stroke-width="1.5" stroke-linecap="round" stroke-linejoin="round"/>
</svg>
