<svg width="80" height="60" viewBox="0 0 80 60" fill="none" xmlns="http://www.w3.org/2000/svg">
<rect x="0.5" y="0.5" width="79" height="59" rx="11.5" fill="white" stroke="#F3F4F6"/>
<g clip-path="url(#clip0_7_1888)">
<path d="M45.2775 20.5234H34.9434V39.0698H45.2775V20.5234Z" fill="#FF5F00"/>
<path d="M35.5989 29.7961C35.5989 26.1917 37.272 22.7511 40.0934 20.5229C34.9755 16.4925 27.5612 17.3772 23.5259 22.5217C19.4907 27.6334 20.3765 35.0389 25.5271 39.0693C29.8248 42.4443 35.8285 42.4443 40.1262 39.0693C37.272 36.8411 35.5989 33.4005 35.5989 29.7961Z" fill="#EB001B"/>
<path d="M59.2196 29.7961C59.2196 36.3168 53.9377 41.5924 47.4091 41.5924C44.7517 41.5924 42.1928 40.7077 40.126 39.0693C45.2438 35.0389 46.1296 27.6334 42.0944 22.4889C41.5039 21.7681 40.8477 21.0799 40.126 20.5229C45.2438 16.4925 52.691 17.3772 56.6934 22.5217C58.3338 24.5861 59.2196 27.1419 59.2196 29.7961Z" fill="#F79E1B"/>
<path d="M58.1046 37.1033V36.7101H58.2687V36.6445H57.875V36.7101H58.039V37.1033H58.1046ZM58.8592 37.1033V36.6445H58.728L58.5968 36.9722L58.4655 36.6445H58.3343V37.1033H58.4327V36.7428L58.5639 37.0377H58.6624L58.7936 36.7428V37.1033H58.8592Z" fill="#F79E1B"/>
</g>
<defs>
<clipPath id="clip0_7_1888">
<rect width="38.22" height="23.5926" fill="white" transform="translate(21 18)"/>
</clipPath>
</defs>
</svg>
