<svg width="21" height="8" viewBox="0 0 21 8" fill="none" xmlns="http://www.w3.org/2000/svg">
<circle cx="3.17302" cy="3.98772" r="3.01213" fill="#6366F1"/>
<path d="M7.77306 5.97559V2.81132H9.67039V3.15124H8.15624V4.22041H9.52824V4.56032H8.15624V5.97559H7.77306ZM10.2772 5.97559V3.60239H10.6418V5.97559H10.2772ZM10.4626 3.20686C10.3915 3.20686 10.3303 3.18265 10.2787 3.13424C10.2283 3.08583 10.203 3.02763 10.203 2.95965C10.203 2.89167 10.2283 2.83347 10.2787 2.78506C10.3303 2.73665 10.3915 2.71244 10.4626 2.71244C10.5337 2.71244 10.5945 2.73665 10.6449 2.78506C10.6964 2.83347 10.7222 2.89167 10.7222 2.95965C10.7222 3.02763 10.6964 3.08583 10.6449 3.13424C10.5945 3.18265 10.5337 3.20686 10.4626 3.20686ZM11.6743 2.81132V5.97559H11.3097V2.81132H11.6743ZM13.3743 3.60239V3.9114H12.1444V3.60239H13.3743ZM12.5028 3.03381H12.8675V5.29576C12.8675 5.39877 12.8824 5.47602 12.9123 5.52752C12.9432 5.57799 12.9823 5.61198 13.0297 5.62949C13.0781 5.64598 13.1291 5.65422 13.1827 5.65422C13.2228 5.65422 13.2558 5.65216 13.2816 5.64804C13.3073 5.64289 13.3279 5.63877 13.3434 5.63568L13.4175 5.96323C13.3928 5.9725 13.3583 5.98177 13.314 5.99104C13.2697 6.00134 13.2136 6.00649 13.1456 6.00649C13.0426 6.00649 12.9416 5.98434 12.8428 5.94005C12.7449 5.89576 12.6635 5.82829 12.5986 5.73765C12.5348 5.64701 12.5028 5.53267 12.5028 5.39465V3.03381ZM14.8923 6.02503C14.6636 6.02503 14.4663 5.97456 14.3005 5.87361C14.1357 5.77164 14.0085 5.62949 13.9189 5.44718C13.8303 5.26383 13.786 5.05062 13.786 4.80753C13.786 4.56444 13.8303 4.35019 13.9189 4.16479C14.0085 3.97835 14.1331 3.83312 14.2928 3.72908C14.4535 3.62402 14.6409 3.57149 14.8552 3.57149C14.9788 3.57149 15.1008 3.59209 15.2214 3.63329C15.3419 3.67449 15.4516 3.74144 15.5505 3.83415C15.6493 3.92582 15.7281 4.04736 15.7869 4.19878C15.8456 4.35019 15.8749 4.53663 15.8749 4.75809V4.91259H14.0456V4.5974H15.5041C15.5041 4.4635 15.4773 4.34401 15.4238 4.23895C15.3712 4.13389 15.296 4.05097 15.1982 3.9902C15.1014 3.92943 14.987 3.89904 14.8552 3.89904C14.71 3.89904 14.5843 3.93509 14.4782 4.00719C14.3731 4.07827 14.2923 4.17097 14.2356 4.2853C14.179 4.39964 14.1506 4.52221 14.1506 4.65302V4.86315C14.1506 5.04238 14.1815 5.19431 14.2433 5.31894C14.3062 5.44254 14.3932 5.53679 14.5045 5.60168C14.6157 5.66555 14.745 5.69748 14.8923 5.69748C14.9881 5.69748 15.0746 5.68409 15.1518 5.65731C15.2301 5.62949 15.2976 5.58829 15.3542 5.5337C15.4109 5.47808 15.4547 5.40907 15.4856 5.32667L15.8378 5.42555C15.8008 5.54503 15.7384 5.6501 15.6509 5.74074C15.5633 5.83035 15.4552 5.90039 15.3264 5.95087C15.1977 6.00031 15.053 6.02503 14.8923 6.02503ZM16.4296 5.97559V3.60239H16.7819V3.96084H16.8066C16.8498 3.84342 16.9281 3.74814 17.0414 3.67501C17.1547 3.60187 17.2825 3.56531 17.4246 3.56531C17.4514 3.56531 17.4849 3.56582 17.525 3.56685C17.5652 3.56788 17.5956 3.56943 17.6162 3.57149V3.9423C17.6038 3.93921 17.5755 3.93458 17.5312 3.9284C17.4879 3.92119 17.4421 3.91758 17.3937 3.91758C17.2783 3.91758 17.1753 3.94179 17.0847 3.9902C16.9951 4.03758 16.924 4.1035 16.8715 4.18796C16.82 4.2714 16.7942 4.36667 16.7942 4.4738V5.97559H16.4296ZM19.7294 4.13389L19.4019 4.22659C19.3813 4.172 19.3509 4.11895 19.3107 4.06745C19.2716 4.01492 19.218 3.97166 19.15 3.93767C19.0821 3.90367 18.995 3.88668 18.8889 3.88668C18.7437 3.88668 18.6227 3.92016 18.5258 3.98711C18.43 4.05303 18.3821 4.13698 18.3821 4.23895C18.3821 4.32959 18.4151 4.40118 18.481 4.45371C18.547 4.50624 18.65 4.55002 18.79 4.58504L19.1423 4.67156C19.3545 4.72307 19.5126 4.80186 19.6166 4.90796C19.7207 5.01302 19.7727 5.14847 19.7727 5.3143C19.7727 5.45027 19.7336 5.57181 19.6553 5.67894C19.578 5.78606 19.4699 5.87052 19.3308 5.93232C19.1918 5.99413 19.03 6.02503 18.8457 6.02503C18.6036 6.02503 18.4033 5.9725 18.2446 5.86743C18.086 5.76237 17.9856 5.60889 17.9434 5.40701L18.2894 5.32048C18.3224 5.44821 18.3847 5.544 18.4764 5.60786C18.5691 5.67173 18.6901 5.70366 18.8395 5.70366C19.0094 5.70366 19.1444 5.66761 19.2443 5.5955C19.3452 5.52237 19.3957 5.43482 19.3957 5.33285C19.3957 5.25044 19.3669 5.18143 19.3092 5.12581C19.2515 5.06916 19.1629 5.02693 19.0434 4.99911L18.6479 4.90641C18.4306 4.85491 18.2709 4.77508 18.1689 4.66693C18.068 4.55775 18.0175 4.42127 18.0175 4.25749C18.0175 4.12359 18.0551 4.00513 18.1303 3.90213C18.2065 3.79913 18.31 3.71827 18.4409 3.65956C18.5727 3.60084 18.7221 3.57149 18.8889 3.57149C19.1238 3.57149 19.3081 3.62299 19.4421 3.72599C19.577 3.829 19.6728 3.96496 19.7294 4.13389Z" fill="#6366F1"/>
</svg>
