<svg width="303" height="96" viewBox="0 0 303 96" fill="none" xmlns="http://www.w3.org/2000/svg">
<path d="M33.01 23.1688C32.1 25.0508 30.849 26.6258 29.257 27.8938C27.665 29.1618 25.804 30.1128 23.675 30.7458C21.545 31.3808 19.26 31.6968 16.821 31.6968H9.56299V44.5718H0V1.63379H17.746C20.351 1.63379 22.678 1.99178 24.726 2.70778C26.773 3.42378 28.51 4.43578 29.938 5.74478C31.365 7.05378 32.46 8.61778 33.226 10.4388C33.992 12.2588 34.375 14.2728 34.375 16.4818V16.6038C34.375 19.0998 33.92 21.2888 33.01 23.1688ZM24.687 16.6678C24.687 14.5528 23.995 12.9448 22.61 11.8468C21.225 10.7478 19.335 10.1978 16.939 10.1978H9.562V23.2608H17.125C19.521 23.2608 21.382 22.6408 22.704 21.3998C24.026 20.1588 24.687 18.6228 24.687 16.7918V16.6678Z" fill="#1B1B24"/>
<path d="M65.24 44.5728L55.968 30.8228H48.49V44.5728H38.928V1.63477H58.757C63.92 1.63477 67.938 2.88277 70.809 5.37677C73.68 7.87077 75.116 11.3468 75.116 15.8038V15.9268C75.116 19.4028 74.257 22.2358 72.539 24.4228C70.821 26.6108 68.576 28.2158 65.804 29.2368L76.406 44.5718L65.24 44.5728ZM65.428 16.2928C65.428 14.2618 64.768 12.7368 63.449 11.7218C62.131 10.7058 60.297 10.1978 57.948 10.1978H48.49V22.4478H58.134C60.483 22.4478 62.285 21.8998 63.542 20.8018C64.799 19.7058 65.428 18.2428 65.428 16.4148V16.2928Z" fill="#1B1B24"/>
<path d="M30.9541 87.4119C30.2291 88.8649 29.2351 90.1009 27.9731 91.1249C26.7091 92.1479 25.1981 92.9469 23.4391 93.5199C21.6791 94.0919 19.7441 94.3789 17.6321 94.3789C14.1531 94.3789 11.0171 93.8069 8.22211 92.6639C5.42711 91.5219 2.72709 89.8049 0.121094 87.5139L2.2281 85.1189C3.4271 86.2239 4.6171 87.1759 5.7961 87.9749C6.9751 88.7719 8.18509 89.4259 9.42709 89.9379C10.6681 90.4499 11.9721 90.8399 13.3371 91.1059C14.7021 91.3719 16.1921 91.5039 17.8051 91.5039C19.4181 91.5039 20.9081 91.2889 22.2741 90.8589C23.6391 90.4289 24.7971 89.8349 25.7501 89.0779C26.7011 88.3219 27.4461 87.4219 27.9841 86.3769C28.5211 85.3339 28.7911 84.1989 28.7911 82.9709V82.8479C28.7911 81.7039 28.6151 80.6799 28.2641 79.7799C27.9121 78.8789 27.2711 78.0609 26.3391 77.3249C25.4071 76.5889 24.1561 75.9229 22.5841 75.3289C21.0121 74.7349 18.9841 74.1939 16.5021 73.7019C13.8941 73.1709 11.6591 72.5479 9.7981 71.8309C7.9361 71.1139 6.4151 70.2759 5.2361 69.3129C4.0561 68.3519 3.1981 67.2369 2.6611 65.9669C2.1231 64.6999 1.8541 63.2459 1.8541 61.6099V61.4869C1.8541 59.8909 2.2061 58.4069 2.9091 57.0359C3.6121 55.6649 4.5851 54.4699 5.8261 53.4459C7.0671 52.4229 8.53609 51.6239 10.2331 51.0519C11.9291 50.4799 13.7921 50.1929 15.8191 50.1929C18.9641 50.1929 21.6831 50.6209 23.9801 51.4779C26.2771 52.3329 28.5211 53.6419 30.7121 55.3999L28.6661 57.9159C26.5991 56.1559 24.5211 54.9079 22.4331 54.1719C20.3451 53.4359 18.1031 53.0679 15.7061 53.0679C14.0931 53.0679 12.6361 53.2829 11.3341 53.7119C10.0311 54.1419 8.91511 54.7259 7.98511 55.4619C7.05511 56.1979 6.3431 57.0579 5.8461 58.0399C5.3501 59.0219 5.1021 60.0649 5.1021 61.1689V61.2919C5.1021 62.4389 5.2781 63.4719 5.6301 64.3939C5.9811 65.3139 6.62211 66.1539 7.55411 66.9089C8.48511 67.6669 9.7791 68.3519 11.4341 68.9659C13.0881 69.5789 15.1991 70.1529 17.7651 70.6849C22.8131 71.7089 26.4541 73.1519 28.6891 75.0129C30.9241 76.8739 32.0411 79.3819 32.0411 82.5319V82.6549C32.0411 84.3729 31.6781 85.9589 30.9541 87.4119Z" fill="#1B1B24"/>
<path d="M73.1001 70.0209C72.1911 71.7399 70.9621 73.1709 69.4141 74.3179C67.8651 75.4619 66.0681 76.3219 64.0231 76.8939C61.9781 77.4659 59.8201 77.7529 57.5481 77.7529H45.8381V93.7529H42.5881V50.8159H58.3391C60.7371 50.8159 62.9181 51.1129 64.8821 51.7049C66.8451 52.2989 68.5401 53.1579 69.9671 54.2829C71.3931 55.4079 72.5001 56.7789 73.2841 58.3939C74.0691 60.0089 74.4631 61.8609 74.4631 63.9469V64.0699C74.4631 66.3199 74.0081 68.3039 73.1001 70.0209ZM71.2131 64.1299C71.2131 62.4109 70.8931 60.9079 70.2531 59.6159C69.6131 58.3269 68.7161 57.2529 67.5611 56.3929C66.4061 55.5339 65.0241 54.8779 63.4151 54.4279C61.8061 53.9769 60.0321 53.7519 58.0931 53.7519H45.8391V74.8149H57.7221C59.7431 74.8149 61.5811 74.5689 63.2311 74.0789C64.8811 73.5869 66.2941 72.8819 67.4701 71.9599C68.6461 71.0379 69.5641 69.9229 70.2241 68.6119C70.8841 67.3039 71.2141 65.8509 71.2141 64.2529L71.2131 64.1299Z" fill="#1B1B24"/>
<path d="M168.53 93.7529L137.949 55.5989V93.7529H134.824V50.8159H137.863L167.824 88.1719V50.8159H170.949V93.7529H168.53Z" fill="#1B1B24"/>
<path d="M209.352 87.4119C208.627 88.8649 207.633 90.1009 206.371 91.1249C205.107 92.1479 203.596 92.9469 201.837 93.5199C200.077 94.0919 198.142 94.3789 196.031 94.3789C192.552 94.3789 189.416 93.8069 186.621 92.6639C183.826 91.5219 181.126 89.8049 178.52 87.5139L180.627 85.1189C181.826 86.2239 183.016 87.1759 184.195 87.9749C185.374 88.7719 186.584 89.4259 187.826 89.9379C189.067 90.4499 190.371 90.8399 191.736 91.1059C193.101 91.3719 194.59 91.5039 196.204 91.5039C197.817 91.5039 199.307 91.2889 200.673 90.8589C202.038 90.4289 203.196 89.8349 204.149 89.0779C205.1 88.3219 205.845 87.4219 206.383 86.3769C206.92 85.3339 207.19 84.1989 207.19 82.9709V82.8479C207.19 81.7039 207.014 80.6799 206.663 79.7799C206.311 78.8789 205.67 78.0609 204.738 77.3249C203.807 76.5889 202.555 75.9229 200.983 75.3289C199.411 74.7349 197.383 74.1939 194.901 73.7019C192.293 73.1709 190.058 72.5479 188.197 71.8309C186.335 71.1139 184.814 70.2759 183.635 69.3129C182.455 68.3519 181.597 67.2369 181.06 65.9669C180.522 64.6999 180.253 63.2459 180.253 61.6099V61.4869C180.253 59.8909 180.605 58.4069 181.308 57.0359C182.011 55.6649 182.984 54.4699 184.225 53.4459C185.466 52.4229 186.935 51.6239 188.632 51.0519C190.328 50.4799 192.191 50.1929 194.218 50.1929C197.362 50.1929 200.082 50.6209 202.379 51.4779C204.676 52.3329 206.92 53.6419 209.111 55.3999L207.065 57.9159C204.998 56.1559 202.92 54.9079 200.833 54.1719C198.745 53.4359 196.503 53.0679 194.106 53.0679C192.493 53.0679 191.036 53.2829 189.734 53.7119C188.431 54.1419 187.315 54.7259 186.385 55.4619C185.456 56.1979 184.743 57.0579 184.247 58.0399C183.751 59.0219 183.503 60.0649 183.503 61.1689V61.2919C183.503 62.4389 183.679 63.4719 184.03 64.3939C184.382 65.3139 185.022 66.1539 185.954 66.9089C186.885 67.6669 188.179 68.3519 189.834 68.9659C191.488 69.5789 193.599 70.1529 196.165 70.6849C201.213 71.7089 204.854 73.1519 207.089 75.0129C209.323 76.8739 210.441 79.3819 210.441 82.5319V82.6549C210.439 84.3729 210.077 85.9589 209.352 87.4119Z" fill="#1B1B24"/>
<path d="M258.673 80.7239C257.618 83.4039 256.139 85.7669 254.236 87.8139C252.333 89.8589 250.026 91.4859 247.317 92.6929C244.607 93.8999 241.618 94.5029 238.349 94.5029C235.039 94.5029 232.05 93.8999 229.382 92.6929C226.713 91.4859 224.427 89.8689 222.525 87.8429C220.622 85.8179 219.153 83.4759 218.119 80.8159C217.085 78.1559 216.568 75.3529 216.568 72.4079V72.2849C216.568 69.3399 217.095 66.5249 218.15 63.8459C219.205 61.1659 220.684 58.8029 222.587 56.7559C224.49 54.7109 226.785 53.0839 229.475 51.8769C232.165 50.6699 235.163 50.0659 238.474 50.0659C241.742 50.0659 244.72 50.6699 247.41 51.8769C250.099 53.0839 252.395 54.6989 254.299 56.7249C256.201 58.7499 257.67 61.0939 258.704 63.7539C259.738 66.4139 260.256 69.2169 260.256 72.1619C260.297 72.2029 260.297 72.2439 260.256 72.2849C260.256 75.2299 259.728 78.0439 258.673 80.7239ZM256.881 72.2849C256.881 69.6249 256.416 67.1169 255.487 64.7619C254.557 62.4079 253.276 60.3619 251.644 58.6209C250.012 56.8809 248.06 55.4999 245.788 54.4759C243.516 53.4529 241.037 52.9409 238.352 52.9409C235.665 52.9409 233.197 53.4429 230.945 54.4449C228.693 55.4489 226.751 56.8199 225.12 58.5599C223.487 60.2999 222.216 62.3349 221.309 64.6689C220.4 67.0029 219.945 69.5009 219.945 72.1609V72.2839C219.945 74.9439 220.41 77.4519 221.34 79.8049C222.27 82.1609 223.55 84.2069 225.182 85.9479C226.814 87.6879 228.766 89.0689 231.038 90.0929C233.311 91.1159 235.79 91.6279 238.476 91.6279C241.161 91.6279 243.63 91.1259 245.882 90.1239C248.134 89.1199 250.076 87.7489 251.708 86.0089C253.34 84.2689 254.61 82.2339 255.519 79.8999C256.427 77.5659 256.882 75.0679 256.882 72.4079V72.2849H256.881Z" fill="#1B1B24"/>
<path d="M298.739 93.7529L284.915 75.9399H270.728V93.7529H267.478V50.8159H285.718C288.076 50.8159 290.205 51.1129 292.108 51.7049C294.011 52.2969 295.635 53.1349 296.978 54.2169C298.322 55.3009 299.367 56.5879 300.111 58.0779C300.855 59.5699 301.228 61.2149 301.228 63.0109V63.1319C301.228 64.9309 300.907 66.5339 300.266 67.9439C299.625 69.3519 298.736 70.5669 297.598 71.5889C296.46 72.6109 295.115 73.4389 293.565 74.0719C292.014 74.7049 290.329 75.1439 288.509 75.3899L302.831 93.7529H298.739ZM297.977 63.1329C297.977 60.2329 296.893 57.9429 294.725 56.2679C292.557 54.5919 289.492 53.7539 285.529 53.7539H270.727V73.0669H285.343C287.159 73.0669 288.841 72.8419 290.39 72.3929C291.938 71.9439 293.269 71.2989 294.384 70.4609C295.5 69.6229 296.376 68.6019 297.017 67.3949C297.657 66.1899 297.977 64.8109 297.977 63.2559V63.1329Z" fill="#1B1B24"/>
<path d="M119.694 88.5818L120.646 87.6018C128.332 78.9028 127.919 65.6238 119.505 57.4488L110.873 49.0658L105.361 54.7408L113.623 62.7648C118.846 67.8328 119.097 76.0738 114.33 81.4698L113.741 82.0758C111.136 84.7608 107.692 86.1348 104.227 86.1918C100.762 86.2358 97.2779 84.9648 94.5949 82.3558L93.9869 81.7678C89.0639 76.5108 89.0789 68.2668 94.1479 63.0478L103.711 53.2018L103.745 53.2338L103.779 53.1998L103.81 53.2318L109.322 47.5568L109.289 47.5258L119.213 37.3068C127.385 28.8918 127.408 15.6048 119.471 7.13378L118.49 6.18078C114.166 1.98378 108.553 -0.0692201 102.965 0.00177992C97.3789 0.0937799 91.8279 2.31078 87.6289 6.63378L86.6779 7.61378C78.9909 16.3128 79.4029 29.5948 87.8169 37.7658L96.4839 46.1838L101.996 40.5088L93.6979 32.4498C88.4799 27.3808 88.2249 19.1418 92.9929 13.7438L93.5819 13.1368C96.1869 10.4538 99.6299 9.07978 103.097 9.02278C106.561 8.97778 110.045 10.2498 112.729 12.8578L113.335 13.4478C118.261 18.7018 118.247 26.9458 113.176 32.1668L103.613 42.0128L103.581 41.9818L95.3559 50.4518H95.3539L88.1099 57.9078C79.9389 66.3228 79.9159 79.6098 87.8529 88.0828L88.8339 89.0318C93.1599 93.2328 98.7719 95.2868 104.359 95.2118C109.944 95.1228 115.496 92.9068 119.694 88.5818Z" fill="#1B1B24"/>
</svg>
