<svg width="80" height="60" viewBox="0 0 80 60" fill="none" xmlns="http://www.w3.org/2000/svg">
<rect x="0.5" y="0.5" width="79" height="59" rx="11.5" fill="white" stroke="#F3F4F6"/>
<g clip-path="url(#clip0_7_1874)">
<path d="M48.4865 21C44.5154 21 40.9501 23.0663 40.9501 26.858C40.9501 31.2249 47.2482 31.5232 47.2482 33.696C47.2482 34.612 46.1807 35.4427 44.3873 35.4427C41.8254 35.4427 39.9039 34.2924 39.9039 34.2924L39.0926 38.1268C39.0926 38.1268 41.2917 39.1067 44.2379 39.1067C48.5932 39.1067 52.0091 36.9552 52.0091 33.0782C52.0091 28.477 45.6897 28.1788 45.6897 26.1551C45.6897 25.4308 46.565 24.6426 48.3584 24.6426C50.3866 24.6426 52.0518 25.4734 52.0518 25.4734L52.8631 21.7669C52.8418 21.7669 51.0271 21 48.4865 21ZM12.1067 21.2769L12 21.8308C12 21.8308 13.6653 22.129 15.1811 22.7468C17.1239 23.4497 17.252 23.8545 17.5936 25.1113L21.159 38.8084H25.9413L33.2642 21.2769H28.5032L23.785 33.206L21.8635 23.0876C21.6927 21.9373 20.796 21.2769 19.6859 21.2769H12.1067ZM35.1857 21.2769L31.4495 38.8084H35.997L39.7118 21.2769H35.1857ZM60.5063 21.2769C59.4175 21.2769 58.841 21.8521 58.414 22.8746L51.753 38.8084H56.5139L57.4319 36.1457H63.239L63.7941 38.8084H68L64.3492 21.2769H60.5063ZM61.1254 26.0273L62.5345 32.6096H58.7556L61.1254 26.0273Z" fill="#1434CB"/>
</g>
<defs>
<clipPath id="clip0_7_1874">
<rect width="56" height="18.1067" fill="white" transform="translate(12 21)"/>
</clipPath>
</defs>
</svg>
